<?xml version="1.0" standalone="no"?>
<!DOCTYPE svg PUBLIC "-//W3C//DTD SVG 20010904//EN"
 "http://www.w3.org/TR/2001/REC-SVG-20010904/DTD/svg10.dtd">
<svg version="1.0" xmlns="http://www.w3.org/2000/svg"
 width="50pt" height="50pt" viewBox="0 0 1080.000000 919.000000"
 preserveAspectRatio="xMidYMid meet">
<metadata>
Created by potrace 1.16, written by Peter Selinger 2001-2019
</metadata>
<g transform="translate(0.000000,919.000000) scale(0.100000,-0.100000)"
fill="#000000" stroke="none">
<path d="M3749 8928 c-3 -1275 5 -2196 36 -4533 37 -2774 41 -2895 97 -3015
21 -44 22 -62 29 -620 7 -591 16 -711 51 -747 21 -20 103 25 287 158 84 61
194 133 245 161 98 55 113 65 258 179 182 145 259 213 264 236 4 13 1 240 -5
506 -6 265 -16 676 -21 912 -25 1093 -55 1696 -100 2017 -28 195 -55 849 -96
2288 l-27 935 -90 180 c-384 770 -678 1314 -804 1492 -43 61 -96 113 -114 113
-5 0 -9 -109 -10 -262z"/>
<path d="M6991 9150 c-105 -77 -259 -349 -315 -558 -21 -79 -32 -100 -74 -149
-79 -92 -161 -239 -444 -793 l-125 -245 -27 -1060 c-40 -1571 -63 -2127 -101
-2405 -41 -305 -71 -888 -95 -1890 -33 -1373 -32 -1299 -13 -1323 50 -65 394
-331 513 -397 52 -29 147 -90 210 -135 177 -127 270 -185 296 -185 13 0 24 1
24 3 0 1 7 37 15 81 28 144 37 307 44 776 5 310 11 474 19 492 50 119 75 1023
112 4068 11 899 27 2015 35 2480 20 1097 20 1219 -1 1248 -20 28 -23 28 -73
-8z"/>
<path d="M3300 8831 c-81 -26 -157 -61 -665 -304 -526 -251 -709 -336 -1240
-577 -884 -401 -1104 -524 -1134 -636 -16 -59 -40 -605 -66 -1469 -3 -99 -7
-223 -10 -275 -3 -52 -7 -203 -10 -335 -3 -132 -7 -280 -10 -330 -3 -49 -7
-223 -10 -385 -3 -162 -7 -333 -10 -380 -2 -47 -7 -218 -10 -380 -3 -162 -8
-349 -10 -415 -2 -66 -7 -327 -10 -580 -9 -797 -17 -919 -66 -1042 -26 -65
-32 -95 -41 -233 -11 -164 0 -426 22 -501 29 -103 107 -152 319 -199 74 -17
136 -28 138 -26 2 2 -36 46 -84 97 -49 52 -99 108 -110 124 -31 44 -51 126
-63 250 -10 110 -14 1667 -4 1775 10 122 28 192 84 335 91 235 109 316 134
590 16 180 20 233 36 520 10 174 15 261 25 410 46 689 123 1399 186 1703 31
152 48 212 85 294 33 73 54 149 123 431 39 162 76 242 149 316 78 79 181 140
507 301 452 223 636 296 772 307 132 11 202 -38 261 -178 17 -41 60 -174 96
-295 77 -261 98 -320 137 -383 46 -73 86 -254 139 -616 67 -460 102 -858 125
-1390 12 -292 20 -354 54 -429 11 -23 25 -75 31 -116 13 -81 26 -714 16 -755
-4 -17 -13 -25 -27 -25 -11 0 -78 37 -147 81 -279 179 -394 239 -577 298 -237
78 -414 98 -610 69 -45 -6 -90 -8 -101 -4 -18 7 -17 9 11 32 17 13 68 40 115
60 121 51 165 79 188 117 16 27 31 37 78 51 33 9 78 27 101 39 61 32 212 167
294 263 86 100 120 150 195 285 31 57 74 129 95 159 27 39 44 79 58 140 52
217 70 553 37 665 -70 238 -340 516 -584 601 -99 34 -185 43 -337 34 -71 -5
-131 -7 -133 -5 -2 2 47 58 109 125 138 148 188 214 233 305 66 133 85 279 47
360 -20 45 -149 173 -225 225 -89 60 -168 47 -283 -48 -51 -41 -54 -58 -10
-67 58 -13 125 -57 195 -129 143 -147 161 -257 69 -430 -40 -76 -156 -195
-222 -229 -100 -50 -191 -71 -302 -71 -82 1 -103 -2 -103 -13 0 -22 79 -52
166 -64 150 -20 251 -55 332 -116 36 -27 39 -39 16 -64 -19 -21 -30 -16 116
-44 95 -18 190 -59 190 -81 0 -12 -12 -13 -67 -7 -118 14 -290 6 -375 -16
-330 -86 -630 -353 -727 -646 -74 -222 -79 -538 -11 -717 38 -101 142 -193
275 -243 93 -35 147 -33 253 11 48 20 137 52 197 71 61 19 130 46 155 61 119
68 360 354 453 537 53 106 62 156 62 350 -1 214 -12 272 -70 380 -51 94 -66
152 -41 161 22 9 60 -18 136 -96 78 -80 114 -149 129 -250 14 -88 38 -169 57
-190 12 -12 18 -10 48 19 l34 33 8 -23 c4 -13 7 -82 7 -154 0 -143 -18 -237
-78 -414 -49 -146 -82 -207 -140 -257 -32 -27 -66 -70 -91 -115 -50 -92 -101
-145 -208 -215 -194 -126 -417 -211 -591 -226 -209 -17 -257 -25 -278 -47 -42
-41 18 -61 227 -77 52 -3 83 -9 76 -14 -8 -5 -60 -21 -117 -36 -57 -15 -100
-30 -96 -34 4 -4 63 -12 131 -19 67 -7 148 -19 179 -27 78 -20 146 -51 138
-64 -3 -5 -33 -10 -65 -10 -117 0 -199 -31 -171 -64 19 -22 119 -45 246 -56
177 -14 335 -60 508 -147 146 -73 214 -153 156 -184 -32 -16 -74 -5 -240 67
-241 104 -292 116 -505 121 -199 6 -279 -4 -424 -54 -139 -47 -231 -101 -390
-228 -94 -75 -149 -104 -196 -105 -52 0 -63 -17 -95 -150 -16 -69 -48 -181
-70 -250 -74 -225 -81 -272 -85 -575 -3 -281 2 -359 36 -535 45 -232 116 -406
195 -479 33 -31 57 -42 113 -55 39 -9 80 -16 90 -16 21 0 32 -18 32 -55 0 -51
142 -79 465 -90 201 -8 427 7 544 35 145 35 228 86 366 224 200 201 331 431
363 641 22 142 25 197 26 507 1 174 4 319 8 323 21 21 61 -55 85 -157 13 -56
17 -125 17 -293 1 -244 -6 -290 -60 -422 -41 -98 -42 -117 -9 -139 51 -34 74
4 98 161 34 220 41 627 13 735 -10 36 -65 164 -123 285 -129 270 -183 422
-155 438 41 25 221 -181 312 -358 58 -115 94 -235 129 -440 35 -201 46 -248
68 -282 21 -31 32 -29 47 10 11 25 36 199 36 247 0 26 17 5 29 -34 16 -54 44
-86 76 -86 18 0 26 -7 31 -26 12 -47 -4 -524 -21 -639 -29 -195 -93 -352 -224
-546 -100 -149 -183 -248 -313 -376 -130 -127 -236 -200 -345 -240 -55 -20
-90 -41 -125 -74 -75 -71 -200 -104 -499 -129 -256 -21 -437 14 -669 130 -264
133 -486 320 -633 535 -76 111 -134 175 -158 175 -46 0 -8 -69 161 -295 146
-194 215 -265 302 -310 40 -20 94 -58 120 -84 104 -104 410 -238 678 -297 113
-25 335 -22 474 6 302 60 623 211 868 409 42 34 152 139 243 233 108 112 169
168 175 162 15 -15 33 -400 26 -540 -7 -140 -17 -198 -45 -275 -46 -121 -126
-198 -229 -220 -47 -10 -53 -13 -35 -20 36 -13 278 -39 438 -45 129 -6 153 -5
166 9 13 12 17 51 23 184 8 201 5 1094 -5 1453 -3 140 -9 386 -13 545 -3 160
-8 369 -11 465 -3 96 -7 292 -10 435 -3 143 -7 352 -10 465 -3 113 -7 318 -10
455 -22 1087 -25 1218 -30 1425 -3 107 -7 310 -10 450 -3 140 -7 318 -10 395
-3 77 -7 246 -10 375 -3 129 -7 287 -10 350 -3 63 -7 189 -10 280 -3 91 -7
212 -10 270 -2 58 -7 166 -10 240 -3 74 -8 164 -10 200 -3 36 -7 103 -10 150
-10 138 -25 253 -38 280 -25 52 -106 64 -207 31z m-1189 -2770 c21 -23 48 -68
60 -100 27 -71 37 -221 19 -306 -11 -54 -18 -66 -75 -120 -55 -53 -65 -69 -81
-125 -15 -54 -27 -74 -69 -115 -107 -105 -250 -156 -429 -152 -102 2 -115 4
-165 32 -65 36 -127 104 -143 157 -15 50 5 95 65 147 23 20 72 64 108 99 66
62 67 65 90 154 34 138 91 190 233 210 112 15 152 43 234 162 l32 47 41 -23
c23 -13 59 -43 80 -67z m93 -2765 c40 -23 87 -81 116 -141 8 -16 51 -66 96
-110 114 -113 116 -116 115 -296 -1 -160 -16 -261 -58 -393 -51 -163 -128
-334 -180 -403 -67 -88 -260 -195 -425 -237 -53 -13 -134 -41 -180 -61 -46
-21 -99 -40 -118 -42 -36 -4 -53 5 -174 92 -33 24 -55 33 -70 29 -52 -13 -245
194 -306 327 -22 50 -26 112 -7 126 6 6 28 13 48 17 121 22 188 149 204 386
21 319 96 430 292 430 55 0 90 -7 268 -54 75 -20 92 -15 106 36 6 22 23 51 37
64 117 103 112 95 112 171 0 38 3 73 7 76 14 15 79 6 117 -17z"/>
<path d="M7328 8835 c-14 -8 -31 -29 -37 -47 -36 -112 -62 -666 -96 -2048 -14
-575 -22 -955 -45 -2130 -21 -1028 -72 -3295 -85 -3695 -3 -99 0 -243 5 -320
12 -160 27 -204 75 -217 56 -15 534 20 575 42 10 6 -15 22 -84 56 -122 60
-175 114 -208 212 -21 64 -23 85 -26 425 -2 293 -1 357 10 357 8 0 104 -84
213 -186 390 -363 479 -424 723 -503 311 -101 573 -143 767 -123 280 30 497
119 760 314 200 149 341 288 486 481 110 146 130 197 76 197 -34 0 -80 -53
-128 -150 -36 -71 -61 -103 -154 -195 -223 -224 -509 -400 -758 -468 -138 -37
-436 -29 -707 20 -99 17 -147 36 -217 87 -28 20 -88 54 -134 75 -46 21 -113
60 -149 86 -90 66 -276 251 -370 367 -198 244 -265 380 -332 673 -27 116 -31
153 -35 341 -6 255 3 302 72 371 60 60 72 57 80 -21 4 -34 11 -69 15 -76 26
-42 76 53 126 243 99 374 169 523 346 734 218 262 514 418 838 443 186 14 270
36 270 71 0 25 -50 40 -153 46 -48 3 -90 9 -93 14 -14 24 155 72 321 90 61 7
114 15 118 19 4 4 -27 19 -70 34 -43 16 -82 32 -87 36 -4 4 27 11 70 15 108 9
180 24 193 39 9 10 7 19 -7 36 -18 22 -27 24 -203 30 -165 6 -191 9 -251 33
-290 112 -654 451 -825 767 -73 134 -95 210 -101 340 -5 145 4 180 73 272 31
40 62 93 71 118 56 157 111 247 214 351 85 85 159 121 315 153 169 35 173 37
135 71 -11 10 -20 26 -20 35 0 32 22 40 107 40 76 0 86 2 109 25 39 39 74 53
165 65 92 12 157 38 177 71 17 27 10 34 -19 18 -16 -8 -54 -10 -123 -6 -109 5
-213 36 -290 84 -191 121 -308 374 -236 513 31 61 172 200 243 240 70 39 79
56 46 82 -34 28 -122 68 -163 75 -109 18 -308 -146 -351 -289 -38 -128 47
-349 198 -514 49 -54 153 -141 241 -202 27 -18 46 -36 43 -38 -3 -3 -99 0
-214 6 -183 11 -216 10 -276 -4 -207 -49 -476 -276 -587 -495 -61 -121 -75
-190 -74 -366 1 -138 4 -173 26 -255 57 -211 193 -514 287 -640 73 -98 312
-325 434 -414 112 -81 207 -133 292 -159 28 -8 69 -20 93 -27 23 -8 47 -19 53
-26 23 -28 -24 -36 -408 -64 -303 -22 -481 -88 -742 -273 -252 -180 -281 -193
-302 -139 -17 43 -23 305 -10 421 14 118 21 142 57 184 l25 29 -46 49 c-46 49
-53 63 -35 74 47 29 82 256 110 720 31 505 61 842 106 1175 50 378 89 550 152
676 42 82 75 176 162 454 66 210 123 332 184 388 58 54 92 55 201 6 44 -20
134 -60 200 -89 212 -92 405 -181 600 -275 356 -172 452 -236 499 -333 14 -29
54 -169 90 -312 36 -143 90 -334 120 -425 79 -237 122 -464 170 -900 29 -257
58 -616 81 -965 8 -132 19 -305 25 -385 5 -80 12 -192 15 -250 31 -555 57
-722 146 -931 54 -130 81 -223 99 -347 15 -102 7 -1538 -9 -1712 -16 -167 -38
-277 -72 -347 -31 -66 -54 -86 -154 -140 l-60 -33 70 0 c90 0 240 32 304 65
108 54 130 129 138 461 7 274 -7 467 -39 554 -54 148 -61 271 -78 1310 -22
1325 -99 3566 -140 4043 -15 172 -36 203 -206 300 -90 52 -190 99 -899 422
-269 123 -652 298 -850 390 -198 92 -477 221 -620 287 -487 224 -567 251 -637
213z"/>
<path d="M8860 6591 c-14 -5 -58 -23 -98 -40 -41 -17 -95 -33 -122 -37 -27 -4
-58 -15 -69 -25 -33 -31 -138 -258 -155 -336 -20 -90 -20 -145 -1 -253 8 -47
18 -121 21 -165 8 -118 39 -174 180 -330 150 -166 298 -313 356 -353 25 -17
67 -36 93 -42 59 -13 80 -24 127 -66 76 -68 218 -58 393 27 230 112 285 242
272 644 -11 319 -59 435 -264 637 -211 209 -443 335 -628 344 -44 2 -91 0
-105 -5z m-57 -483 c12 -6 50 -35 85 -65 71 -60 116 -85 182 -103 109 -29 158
-72 282 -250 84 -120 125 -168 178 -209 24 -18 25 -25 24 -113 0 -109 -21
-164 -69 -188 -47 -24 -361 -21 -436 3 -119 40 -242 170 -338 358 -79 155
-104 240 -105 354 -1 78 2 96 24 135 43 75 116 109 173 78z"/>
<path d="M8825 4046 c-116 -20 -203 -56 -348 -145 -34 -20 -95 -55 -136 -76
-60 -32 -80 -48 -106 -89 -89 -141 -253 -481 -301 -627 -27 -82 -28 -92 -31
-339 -2 -140 0 -289 5 -330 l9 -75 2 75 c2 122 20 400 31 472 12 82 27 125 40
112 17 -17 39 -149 65 -381 32 -286 47 -369 80 -463 38 -104 56 -138 148 -273
133 -197 216 -275 371 -348 275 -129 666 -157 956 -68 36 11 74 22 85 25 11 3
-5 -12 -35 -35 -58 -42 -122 -69 -230 -96 -78 -20 -110 -39 -110 -65 0 -23 24
-37 78 -46 67 -11 107 3 168 56 32 28 101 77 154 110 109 67 146 104 156 156
6 35 8 36 43 30 30 -4 45 0 81 24 25 17 50 30 56 30 5 0 31 -14 57 -30 26 -17
52 -30 56 -30 5 0 5 17 0 38 -18 77 -16 89 71 407 56 206 78 472 60 741 -15
239 -31 310 -131 589 -38 106 -43 130 -42 201 l0 82 -29 -8 c-51 -15 -116 15
-310 144 -208 138 -274 172 -404 211 -80 24 -108 27 -284 31 -135 2 -220 -1
-275 -10z m-75 -704 c0 -5 -13 -27 -28 -48 -16 -21 -37 -51 -46 -67 l-19 -27
71 6 c61 6 75 4 105 -15 54 -33 71 -78 62 -172 -3 -44 -4 -79 -1 -79 2 0 60
17 128 37 103 30 139 37 218 37 103 1 137 -11 193 -63 57 -52 89 -149 102
-306 9 -108 31 -201 57 -239 11 -17 77 -88 146 -158 115 -116 124 -128 111
-145 -178 -229 -314 -363 -369 -363 -19 0 -52 -17 -95 -50 -157 -119 -185
-117 -503 41 -176 87 -212 108 -272 165 -246 232 -419 789 -318 1026 14 33 44
68 98 118 65 58 83 81 100 128 33 87 70 118 195 163 59 21 65 22 65 11z"/>
</g>
</svg>
